<mxfile host="app.diagrams.net" agent="Mozilla/5.0 (X11; Linux x86_64) AppleWebKit/537.36 (KHTML, like Gecko) Chrome/135.0.0.0 Safari/537.36" version="26.2.13">
  <diagram name="Page-1" id="rrp1privOaEEiuLFpC8W">
    <mxGraphModel dx="1428" dy="797" grid="1" gridSize="10" guides="1" tooltips="1" connect="1" arrows="1" fold="1" page="1" pageScale="1" pageWidth="850" pageHeight="1100" math="0" shadow="0">
      <root>
        <mxCell id="0" />
        <mxCell id="1" parent="0" />
        <mxCell id="V2jzIZroPAAI2PERnM6R-65" style="edgeStyle=orthogonalEdgeStyle;rounded=0;orthogonalLoop=1;jettySize=auto;html=1;endArrow=none;startFill=0;" parent="1" source="V2jzIZroPAAI2PERnM6R-54" target="V2jzIZroPAAI2PERnM6R-64" edge="1">
          <mxGeometry relative="1" as="geometry" />
        </mxCell>
        <mxCell id="V2jzIZroPAAI2PERnM6R-54" value="Poll" style="rounded=0;whiteSpace=wrap;html=1;" parent="1" vertex="1">
          <mxGeometry x="170" y="70" width="120" height="60" as="geometry" />
        </mxCell>
        <mxCell id="V2jzIZroPAAI2PERnM6R-76" style="edgeStyle=orthogonalEdgeStyle;rounded=0;orthogonalLoop=1;jettySize=auto;html=1;endArrow=none;startFill=0;" parent="1" source="V2jzIZroPAAI2PERnM6R-55" target="V2jzIZroPAAI2PERnM6R-75" edge="1">
          <mxGeometry relative="1" as="geometry" />
        </mxCell>
        <mxCell id="V2jzIZroPAAI2PERnM6R-85" style="edgeStyle=orthogonalEdgeStyle;rounded=0;orthogonalLoop=1;jettySize=auto;html=1;endArrow=none;startFill=0;" parent="1" source="V2jzIZroPAAI2PERnM6R-55" target="V2jzIZroPAAI2PERnM6R-83" edge="1">
          <mxGeometry relative="1" as="geometry" />
        </mxCell>
        <mxCell id="V2jzIZroPAAI2PERnM6R-55" value="Vote" style="rounded=0;whiteSpace=wrap;html=1;" parent="1" vertex="1">
          <mxGeometry x="567.5" y="70" width="120" height="60" as="geometry" />
        </mxCell>
        <mxCell id="V2jzIZroPAAI2PERnM6R-56" value="Option" style="rounded=0;whiteSpace=wrap;html=1;" parent="1" vertex="1">
          <mxGeometry x="170" y="260" width="120" height="60" as="geometry" />
        </mxCell>
        <mxCell id="V2jzIZroPAAI2PERnM6R-57" value="User" style="rounded=0;whiteSpace=wrap;html=1;" parent="1" vertex="1">
          <mxGeometry x="567.5" y="260" width="120" height="60" as="geometry" />
        </mxCell>
        <mxCell id="V2jzIZroPAAI2PERnM6R-62" style="rounded=0;orthogonalLoop=1;jettySize=auto;html=1;endArrow=none;startFill=0;" parent="1" source="V2jzIZroPAAI2PERnM6R-61" target="V2jzIZroPAAI2PERnM6R-57" edge="1">
          <mxGeometry relative="1" as="geometry" />
        </mxCell>
        <mxCell id="V2jzIZroPAAI2PERnM6R-61" value="Name" style="ellipse;whiteSpace=wrap;html=1;" parent="1" vertex="1">
          <mxGeometry x="760" y="300" width="70" height="40" as="geometry" />
        </mxCell>
        <mxCell id="V2jzIZroPAAI2PERnM6R-70" style="rounded=0;orthogonalLoop=1;jettySize=auto;html=1;endArrow=none;startFill=0;" parent="1" source="V2jzIZroPAAI2PERnM6R-63" target="V2jzIZroPAAI2PERnM6R-54" edge="1">
          <mxGeometry relative="1" as="geometry" />
        </mxCell>
        <mxCell id="V2jzIZroPAAI2PERnM6R-63" value="Title" style="ellipse;whiteSpace=wrap;html=1;" parent="1" vertex="1">
          <mxGeometry x="40" y="100" width="70" height="40" as="geometry" />
        </mxCell>
        <mxCell id="V2jzIZroPAAI2PERnM6R-66" style="edgeStyle=orthogonalEdgeStyle;rounded=0;orthogonalLoop=1;jettySize=auto;html=1;endArrow=none;startFill=0;" parent="1" source="V2jzIZroPAAI2PERnM6R-64" target="V2jzIZroPAAI2PERnM6R-56" edge="1">
          <mxGeometry relative="1" as="geometry" />
        </mxCell>
        <mxCell id="V2jzIZroPAAI2PERnM6R-64" value="consists of" style="rhombus;whiteSpace=wrap;html=1;" parent="1" vertex="1">
          <mxGeometry x="162.5" y="180" width="135" height="40" as="geometry" />
        </mxCell>
        <mxCell id="V2jzIZroPAAI2PERnM6R-67" value="n" style="text;html=1;align=center;verticalAlign=middle;resizable=0;points=[];autosize=1;strokeColor=none;fillColor=none;" parent="1" vertex="1">
          <mxGeometry x="260" y="230" width="30" height="30" as="geometry" />
        </mxCell>
        <mxCell id="V2jzIZroPAAI2PERnM6R-68" value="1" style="text;html=1;align=center;verticalAlign=middle;resizable=0;points=[];autosize=1;strokeColor=none;fillColor=none;" parent="1" vertex="1">
          <mxGeometry x="260" y="130" width="30" height="30" as="geometry" />
        </mxCell>
        <mxCell id="V2jzIZroPAAI2PERnM6R-71" style="rounded=0;orthogonalLoop=1;jettySize=auto;html=1;endArrow=none;startFill=0;" parent="1" source="V2jzIZroPAAI2PERnM6R-72" target="V2jzIZroPAAI2PERnM6R-54" edge="1">
          <mxGeometry relative="1" as="geometry">
            <mxPoint x="170" y="37" as="targetPoint" />
          </mxGeometry>
        </mxCell>
        <mxCell id="V2jzIZroPAAI2PERnM6R-72" value="Description" style="ellipse;whiteSpace=wrap;html=1;" parent="1" vertex="1">
          <mxGeometry x="40" y="20" width="80" height="40" as="geometry" />
        </mxCell>
        <mxCell id="V2jzIZroPAAI2PERnM6R-78" style="edgeStyle=orthogonalEdgeStyle;rounded=0;orthogonalLoop=1;jettySize=auto;html=1;endArrow=none;startFill=0;exitX=0.5;exitY=1;exitDx=0;exitDy=0;" parent="1" source="V2jzIZroPAAI2PERnM6R-75" target="V2jzIZroPAAI2PERnM6R-56" edge="1">
          <mxGeometry relative="1" as="geometry">
            <Array as="points">
              <mxPoint x="425" y="290" />
            </Array>
          </mxGeometry>
        </mxCell>
        <mxCell id="V2jzIZroPAAI2PERnM6R-75" value="votes for" style="rhombus;whiteSpace=wrap;html=1;" parent="1" vertex="1">
          <mxGeometry x="357.5" y="180" width="135" height="40" as="geometry" />
        </mxCell>
        <mxCell id="V2jzIZroPAAI2PERnM6R-79" value="1" style="text;html=1;align=center;verticalAlign=middle;resizable=0;points=[];autosize=1;strokeColor=none;fillColor=none;" parent="1" vertex="1">
          <mxGeometry x="290" y="290" width="30" height="30" as="geometry" />
        </mxCell>
        <mxCell id="V2jzIZroPAAI2PERnM6R-80" value="n" style="text;html=1;align=center;verticalAlign=middle;resizable=0;points=[];autosize=1;strokeColor=none;fillColor=none;" parent="1" vertex="1">
          <mxGeometry x="537.5" y="70" width="30" height="30" as="geometry" />
        </mxCell>
        <mxCell id="V2jzIZroPAAI2PERnM6R-81" value="1" style="text;html=1;align=center;verticalAlign=middle;resizable=0;points=[];autosize=1;strokeColor=none;fillColor=none;" parent="1" vertex="1">
          <mxGeometry x="657.5" y="230" width="30" height="30" as="geometry" />
        </mxCell>
        <mxCell id="V2jzIZroPAAI2PERnM6R-82" value="n" style="text;html=1;align=center;verticalAlign=middle;resizable=0;points=[];autosize=1;strokeColor=none;fillColor=none;" parent="1" vertex="1">
          <mxGeometry x="657.5" y="130" width="30" height="30" as="geometry" />
        </mxCell>
        <mxCell id="V2jzIZroPAAI2PERnM6R-86" style="edgeStyle=orthogonalEdgeStyle;rounded=0;orthogonalLoop=1;jettySize=auto;html=1;endArrow=none;startFill=0;" parent="1" source="V2jzIZroPAAI2PERnM6R-83" target="V2jzIZroPAAI2PERnM6R-57" edge="1">
          <mxGeometry relative="1" as="geometry" />
        </mxCell>
        <mxCell id="V2jzIZroPAAI2PERnM6R-83" value="voted by" style="rhombus;whiteSpace=wrap;html=1;" parent="1" vertex="1">
          <mxGeometry x="560" y="180" width="135" height="40" as="geometry" />
        </mxCell>
        <mxCell id="V2jzIZroPAAI2PERnM6R-88" style="rounded=0;orthogonalLoop=1;jettySize=auto;html=1;endArrow=none;startFill=0;" parent="1" source="V2jzIZroPAAI2PERnM6R-87" target="V2jzIZroPAAI2PERnM6R-56" edge="1">
          <mxGeometry relative="1" as="geometry" />
        </mxCell>
        <mxCell id="V2jzIZroPAAI2PERnM6R-87" value="Text" style="ellipse;whiteSpace=wrap;html=1;" parent="1" vertex="1">
          <mxGeometry x="70" y="330" width="70" height="40" as="geometry" />
        </mxCell>
      </root>
    </mxGraphModel>
  </diagram>
</mxfile>
